<?xml version="1.0" encoding="utf-8"?>
<!-- Generator: Adobe Illustrator 24.0.3, SVG Export Plug-In . SVG Version: 6.00 Build 0)  -->
<svg version="1.1" id="Calque_1" xmlns="http://www.w3.org/2000/svg" xmlns:xlink="http://www.w3.org/1999/xlink" x="0px" y="0px"
	 viewBox="0 0 512 512" style="enable-background:new 0 0 512 512;" xml:space="preserve">
<style type="text/css">
	.st0{fill:#8A31FF;}
</style>
<g>
	<g>
		<path class="st0" d="M2,0.7v512h512V0.7H2z M484,482.7H32v-452h452V482.7z"/>
	</g>
</g>
<g>
	<g>
		<path class="st0" d="M204.18,182.3H174.9l-65.04,170.4h34.08l15.6-42.48h59.52l15.84,42.48h34.08L204.18,182.3z M165.06,286.94
			l24.48-66.96l23.52,66.96H165.06z"/>
	</g>
</g>
<g>
	<g>
		<path class="st0" d="M405.3,289.34c0-43.39-33.55-64.56-65.52-64.56c-44.78,0-66.48,34.54-66.48,65.76
			c0,34.79,26.07,64.56,66.24,64.56c38.21,0,53.92-23.28,58.56-32.88l-27.6-7.68c-2.08,5.12-11.92,17.04-29.76,17.04
			c-27.57,0-32.88-26.48-33.36-31.44h97.2C404.9,298.86,405.3,291.42,405.3,289.34z M306.9,279.26c1.47-18.43,15.47-31.2,32.4-31.2
			c16.45,0,30.95,11.14,32.88,31.2H306.9z"/>
	</g>
</g>
</svg>
