<?xml version="1.0" encoding="utf-8"?>
<!-- Generator: Adobe Illustrator 24.0.3, SVG Export Plug-In . SVG Version: 6.00 Build 0)  -->
<svg version="1.1" id="Calque_1" xmlns="http://www.w3.org/2000/svg" xmlns:xlink="http://www.w3.org/1999/xlink" x="0px" y="0px"
	 viewBox="0 0 512 512" style="enable-background:new 0 0 512 512;" xml:space="preserve">
<style type="text/css">
	.st0{fill:#8A31FF;}
</style>
<g>
	<g>
		<g>
			<path class="st0" d="M193.82,391.62c3.28,0,6.35,0.46,9.21,1.38c2.86,0.92,5.71,2.05,8.57,3.39l6.4-16.46
				c-7.62-3.63-15.61-5.45-23.97-5.45c-7.66,0-14.31,1.63-19.98,4.9c-5.66,3.26-10,7.93-13.02,14c-3.02,6.07-4.52,13.11-4.52,21.11
				c0,12.81,3.11,22.59,9.34,29.37c6.22,6.77,15.18,10.16,26.85,10.16c8.15,0,15.45-1.43,21.91-4.29v-17.67
				c-3.25,1.34-6.47,2.49-9.68,3.44c-3.21,0.95-6.53,1.43-9.95,1.43c-11.32,0-16.98-7.44-16.98-22.33c0-7.16,1.39-12.78,4.18-16.85
				C184.97,393.66,188.85,391.62,193.82,391.62z"/>
			<path class="st0" d="M257.3,103.62c-57.73,0-104.69,46.96-104.69,104.69S199.57,313,257.3,313s104.69-46.96,104.69-104.69
				S315.02,103.62,257.3,103.62z M178.17,220.65c0,0.92,0.03,1.84,0.07,2.76c-0.93-4.89-1.44-9.94-1.44-15.09
				c0-44.39,36.11-80.5,80.5-80.5c7.86,0,15.44,1.15,22.62,3.26c4.2,3.03,6.69,7.79,6.69,13.01c0,5.8-3.16,11.19-8.23,14.07
				l-0.16,0.09c-0.08,0.05-0.16,0.1-0.24,0.14c-1.4,0.74-2.93,1.27-4.56,1.57c-0.07,0.01-0.14,0.03-0.21,0.04
				c-7.38,1.51-16.71,0.14-23.53-0.86c-3.65-0.54-6.53-0.96-9.06-0.96C206.19,158.17,178.17,186.2,178.17,220.65z M253.21,204.21
				c0,3.48-2.83,6.32-6.32,6.32c-3.48,0-6.32-2.83-6.32-6.32c0-3.48,2.84-6.32,6.32-6.32C250.38,197.89,253.21,200.73,253.21,204.21
				z M337.47,215.48c-3.64,41.04-38.19,73.33-80.17,73.33c-13.49,0-26.21-3.35-37.39-9.24c6.49,2.29,13.46,3.55,20.73,3.55
				c15.59,0,30.53-5.78,42.05-16.27c0.01-0.01,0.01-0.01,0.02-0.02c8.31-7.47,14.94-19.33,21.35-30.8
				c5.7-10.2,12.17-21.76,17.57-25.37c0.08-0.06,0.22-0.15,0.34-0.23c0.02-0.01,0.04-0.02,0.05-0.04c1.7-1.12,3.67-1.71,5.7-1.71
				C332.09,208.68,335.97,211.47,337.47,215.48z M327.72,184.5c-6.61,0-13.04,1.88-18.61,5.44c-0.1,0.06-0.2,0.12-0.3,0.19
				c-0.09,0.05-0.2,0.13-0.31,0.21c-0.15,0.1-0.3,0.21-0.45,0.31c-10.16,6.87-17.41,19.84-25.09,33.58
				c-5.48,9.79-11.13,19.91-16.47,24.67c-0.06,0.05-0.12,0.11-0.18,0.17c-7.04,6.37-16.15,9.87-25.66,9.87
				c-21.11,0-38.29-17.17-38.29-38.29c0-14.08,7.64-26.4,18.99-33.05c-3.12,4.79-4.95,10.49-4.95,16.61
				c0,16.82,13.68,30.5,30.51,30.5c16.82,0,30.5-13.68,30.5-30.5c0-7.42-2.67-14.23-7.09-19.52c2.55-0.16,5.12-0.47,7.66-0.98
				c4.13-0.78,8.06-2.17,11.69-4.14c0.06-0.03,0.12-0.06,0.18-0.1h0c0.26-0.14,0.51-0.29,0.75-0.44
				c11.32-6.53,18.72-18.15,19.99-30.99c11.08,9.81,19.45,22.62,23.82,37.15C332.23,184.75,330,184.5,327.72,184.5z"/>
			<path class="st0" d="M458.91,84.28L377.45,2.82c-2.27-2.27-5.34-3.54-8.55-3.54H67.42c-6.68,0-12.09,5.41-12.09,12.09v488.85
				c0,6.68,5.41,12.09,12.09,12.09h382.94c6.68,0,12.09-5.41,12.09-12.09V92.83C462.45,89.63,461.18,86.55,458.91,84.28z
				 M380.99,40.56l40.18,40.18h-40.18V40.56L380.99,40.56z M79.51,23.46H356.8v16.55H79.51V23.46z M79.51,488.12V64.2H356.8v28.64
				c0,6.68,5.41,12.09,12.09,12.09h69.37v383.2H79.51z"/>
			<path class="st0" d="M274.67,375.59h-19.31l-32.17,47.04v15.34h30.85v14.98h20.64v-14.98h8.52v-15.61h-8.52L274.67,375.59
				L274.67,375.59z M254.22,406.52c-0.12,2.87-0.19,5.16-0.19,6.85v9h-12.75l8.57-12.75c1.51-2.36,2.87-4.9,4.07-7.62h0.58
				C254.44,402.13,254.34,403.64,254.22,406.52z"/>
			<path class="st0" d="M319.97,375.59H293.2v77.36h25.03c12.87,0,22.87-3.49,29.98-10.48c7.11-6.98,10.66-16.93,10.66-29.84
				c0-11.99-3.38-21.17-10.13-27.51C341.97,378.76,332.39,375.59,319.97,375.59z M332.72,430.27c-2.96,3.69-7.62,5.53-13.97,5.53
				h-4.66v-43.34h6.08c5.72,0,9.97,1.71,12.78,5.13c2.8,3.42,4.21,8.68,4.21,15.77C337.17,420.95,335.68,426.59,332.72,430.27z"/>
		</g>
	</g>
</g>
</svg>
