<?xml version="1.0" encoding="utf-8"?>
<!-- Generator: Adobe Illustrator 24.0.3, SVG Export Plug-In . SVG Version: 6.00 Build 0)  -->
<svg version="1.1" id="Calque_1" xmlns="http://www.w3.org/2000/svg" xmlns:xlink="http://www.w3.org/1999/xlink" x="0px" y="0px"
	 viewBox="0 0 512 512" style="enable-background:new 0 0 512 512;" xml:space="preserve">
<style type="text/css">
	.st0{fill:#8A31FF;}
</style>
<g id="fyYih6.tif">
	<g>
		<path class="st0" d="M509.98,34.93c-5.45-18.68-17.68-29.95-36.79-33.75C472.09,0.96,471.06,0.4,470,0H43
			c-2.24,0.53-4.47,1.07-6.71,1.58C17.85,5.82,4.28,20.4,1.17,39.24C0.95,40.52,0.4,41.75,0,43v427c0.52,1.88,1.1,3.75,1.54,5.65
			c4.17,18.27,18.68,31.94,37.28,35.17c1.09,0.19,2.12,0.77,3.18,1.18h428c2.52-0.72,5.04-1.4,7.55-2.15
			c18.41-5.58,29.51-17.78,33.26-36.67c0.22-1.1,0.79-2.12,1.19-3.18V42C511.33,39.64,510.67,37.28,509.98,34.93z M171.64,98.84
			c17.34,0.34,31.73,14.94,31.33,31.79c-0.42,17.8-14.66,31.01-33.13,30.71c-17.26-0.27-30.58-14.22-30.31-31.74
			C139.8,112.34,154.24,98.5,171.64,98.84z M440.71,337.43c-5.18,17.08-12.2,33.17-26.21,45.1c-15.94,13.57-42.12,16.21-60.54,6.36
			c-16.85-9.02-23.87-27.71-20.45-46.19c3.91-21.17,10.5-41.83,15.64-62.78c1.92-7.86,4.1-15.89,4.34-23.9
			c0.59-19.49-14.08-30.92-33.34-27.31c-12.46,2.33-21.72,9.26-26.81,20.29c-5.04,10.92-8.86,22.54-11.91,34.2
			c-9.04,34.53-17.45,69.23-26.04,103.88c-0.64,2.56-1.06,4.82-4.5,4.8c-15.33-0.09-30.66-0.06-45.99-0.11
			c-0.77,0-1.55-0.39-2.89-0.76c2.59-10.59,5.13-20.99,7.67-31.4c-0.21-0.15-0.43-0.3-0.64-0.45c-1.08,1.47-2.14,2.96-3.23,4.42
			c-11.37,15.08-25.35,26.35-44.36,30.19c-10.65,2.16-21.26,1.68-31.52-1.82c-15.6-5.32-23.67-16.9-26.22-32.83
			c-2.61-16.27,1.71-31.7,5.5-47.21c6.35-25.97,12.72-51.93,19.07-77.9c0.16-0.63,0.22-1.27,0.48-2.83H93.47
			c0.17-2.16,0.08-3.45,0.4-4.64c2.99-11.23,6.06-22.45,9.07-33.68c0.66-2.48,1.72-4.01,4.73-4c27,0.09,53.99,0.05,80.99,0.08
			c0.96,0,1.91,0.34,3.56,0.65c-2.54,10.14-5.02,20.06-7.51,29.99c-9.27,36.89-18.59,73.76-27.75,110.68
			c-1.23,4.97-1.95,10.12-2.45,15.24c-0.89,9.06,3.93,14.26,13.08,14.3c12.41,0.05,23.06-4.77,32.31-12.63
			c11.07-9.42,18.4-21.13,21.79-35.49c5.92-25.05,12.37-49.97,18.58-74.94c0.4-1.6,0.66-3.24,1.19-5.88H205.3
			c0.71-3.27,1.17-5.82,1.84-8.31c2.6-9.79,5.31-19.56,7.91-29.35c0.7-2.62,1.65-4.37,4.96-4.36c23.99,0.13,47.99,0.07,71.98,0.11
			c0.96,0,1.92,0.35,3.65,0.69c-2.87,13.39-5.71,26.6-8.54,39.81c0.24,0.1,0.47,0.21,0.7,0.31c0.94-1.29,1.91-2.57,2.81-3.88
			c9.73-14.04,21.55-25.85,36.81-33.81c36.39-18.97,74.77,2.29,79.07,43.1c2.03,19.29-2.52,37.28-7.55,55.42
			c-4.44,16-8.87,32.01-12.95,48.1c-0.96,3.78-0.94,7.96-0.6,11.89c0.65,7.54,7.3,11.58,14.06,8.05c3.93-2.05,7.71-5.48,10.07-9.23
			c4.38-6.98,7.68-14.64,11.71-22.57c5.9,2.26,12.1,4.52,18.16,7.1C440.22,334.28,441.01,336.44,440.71,337.43z"/>
	</g>
</g>
</svg>
