<?xml version="1.0" encoding="utf-8"?>
<!-- Generator: Adobe Illustrator 24.0.3, SVG Export Plug-In . SVG Version: 6.00 Build 0)  -->
<svg version="1.1" id="Calque_1" xmlns="http://www.w3.org/2000/svg" xmlns:xlink="http://www.w3.org/1999/xlink" x="0px" y="0px"
	 viewBox="0 0 512 512" style="enable-background:new 0 0 512 512;" xml:space="preserve">
<style type="text/css">
	.st0{fill:#8A31FF;}
</style>
<path class="st0" d="M160.01,423h-70V197h70V423z M166.99,125c0-22.63-18.36-41-40.98-41C103.31,84,85,102.37,85,125
	c0,22.64,18.31,41,41.02,41C148.63,166,166.99,147.63,166.99,125z M422,298.66C422,238,409.18,193,338.31,193
	c-34.05,0-56.91,17.03-66.25,34.74H272V197h-68v226h68V310.79c0-29.39,7.48-57.86,43.91-57.86c35.93,0,37.09,33.61,37.09,59.72V423
	h69V298.66z M512,452V60c0-33.09-26.91-60-60-60H60C26.91,0,0,26.91,0,60v392c0,33.09,26.91,60,60,60h392
	C485.09,512,512,485.09,512,452z M452,40c11.03,0,20,8.97,20,20v392c0,11.03-8.97,20-20,20H60c-11.03,0-20-8.97-20-20V60
	c0-11.03,8.97-20,20-20H452z"/>
</svg>
