<?xml version="1.0" encoding="utf-8"?>
<!-- Generator: Adobe Illustrator 24.0.3, SVG Export Plug-In . SVG Version: 6.00 Build 0)  -->
<svg version="1.1" id="Calque_1" xmlns="http://www.w3.org/2000/svg" xmlns:xlink="http://www.w3.org/1999/xlink" x="0px" y="0px"
	 viewBox="0 0 512 512" style="enable-background:new 0 0 512 512;" xml:space="preserve">
<style type="text/css">
	.st0{fill:#8A31FF;}
</style>
<g>
	<g>
		<path class="st0" d="M2,0.7v512h512V0.7H2z M484,482.7H32v-452h452V482.7z"/>
	</g>
</g>
<g>
	<g>
		<path class="st0" d="M215.1,182.3h-72.24v170.4h33.12v-57.12h40.32c29.53,0,53.04-25.71,53.04-56.64
			C269.34,212.7,248.16,182.3,215.1,182.3z M214.38,266.54h-38.4v-55.2h36.96c14.06,0,22.8,13.2,22.8,27.6
			C235.74,255.7,226,266.54,214.38,266.54z"/>
	</g>
</g>
<g>
	<g>
		<path class="st0" d="M338.94,277.34c-4.64-1.12-24.72-4.39-24.72-15.84c0-9.18,7.53-14.16,19.2-14.16
			c15.83,0,30.08,9.12,36.48,13.92l12.96-19.44c-6.88-6.08-21.61-17.28-49.2-17.28c-26.28,0-49.44,14.91-49.44,41.52
			c0,27.64,36.72,32.8,44.88,35.04c9.76,2.72,27.6,6.23,27.6,17.04c0,8.81-8.45,13.92-20.64,13.92c-18.81,0-36.48-11.12-44.16-16.56
			l-12,20.16c7.2,6.24,27.85,19.44,56.88,19.44c15.68,0,50.88-4.9,50.88-39.84C387.66,285.7,347.58,279.58,338.94,277.34z"/>
	</g>
</g>
</svg>
