<?xml version="1.0" encoding="utf-8"?>
<!-- Generator: Adobe Illustrator 24.0.3, SVG Export Plug-In . SVG Version: 6.00 Build 0)  -->
<svg version="1.1" id="Calque_1" xmlns="http://www.w3.org/2000/svg" xmlns:xlink="http://www.w3.org/1999/xlink" x="0px" y="0px"
	 viewBox="0 0 512 512" style="enable-background:new 0 0 512 512;" xml:space="preserve">
<style type="text/css">
	.st0{fill:#8A31FF;}
</style>
<path class="st0" d="M502.46,180.08l-97.25-134.5l-5.53-7.65L390.29,37L258.47,23.74l-2.11-0.21l-2.11,0.21L127.09,36.58l-9.33,0.94
	l-5.53,7.58L12.59,181.78l-9.88,13.55l11.02,12.63L243,470.73l15.97,18.3l15.8-18.45l226.62-264.53l10.76-12.56L502.46,180.08z
	 M112.04,194.36l118.05,229.61L36.7,202.33L112.04,194.36z M139.5,56.44l99.3-10.03L135.16,170.8l-1.12,0.12L139.5,56.44z
	 M383.07,171.76l-0.06-0.01L274.53,46.46L378.35,56.9L383.07,171.76z M353.51,170.4H163.37l93.24-111.93L353.51,170.4z
	 M136.14,191.82h236.88l9.09,0.96L258.8,433.91L134.43,192L136.14,191.82z M404.49,195.14l72.06,7.62l-188.47,220L404.49,195.14z
	 M404.18,173.99l-4.1-99.66l77.69,107.44L404.18,173.99z M117.67,73.3l-4.76,99.86l-73.72,7.8L117.67,73.3z"/>
</svg>
