<?xml version="1.0" encoding="utf-8"?>
<!-- Generator: Adobe Illustrator 24.0.3, SVG Export Plug-In . SVG Version: 6.00 Build 0)  -->
<svg version="1.1" id="Calque_1" xmlns="http://www.w3.org/2000/svg" xmlns:xlink="http://www.w3.org/1999/xlink" x="0px" y="0px"
	 viewBox="0 0 48 48" style="enable-background:new 0 0 48 48;" xml:space="preserve">
<style type="text/css">
	.st0{fill:#231F20;}
</style>
<g>
	<path class="st0" d="M43,10.1H5.1C2.3,10.1,0,7.8,0,5v0c0-2.8,2.3-5.1,5.1-5.1H43C45.8-0.1,48,2.2,48,5v0C48,7.8,45.8,10.1,43,10.1
		z"/>
	<path class="st0" d="M43,29H5.1C2.3,29,0,26.8,0,24v0c0-2.8,2.3-5.1,5.1-5.1H43c2.8,0,5.1,2.3,5.1,5.1v0C48,26.8,45.8,29,43,29z"/>
	<path class="st0" d="M43,48H5.1C2.3,48,0,45.7,0,42.9v0c0-2.8,2.3-5.1,5.1-5.1H43c2.8,0,5.1,2.3,5.1,5.1v0C48,45.7,45.8,48,43,48z"
		/>
</g>
</svg>
