<?xml version="1.0" encoding="utf-8"?>
<!-- Generator: Adobe Illustrator 24.0.3, SVG Export Plug-In . SVG Version: 6.00 Build 0)  -->
<svg version="1.1" id="Calque_1" xmlns="http://www.w3.org/2000/svg" xmlns:xlink="http://www.w3.org/1999/xlink" x="0px" y="0px"
	 viewBox="0 0 48 48" style="enable-background:new 0 0 48 48;" xml:space="preserve">
<style type="text/css">
	.st0{fill:#231F20;}
</style>
<path class="st0" d="M33.8,40.7L7,13.9c-2-2-2-5.2,0-7.2l0,0c2-2,5.2-2,7.2,0L41,33.5c2,2,2,5.2,0,7.2l0,0
	C39,42.6,35.8,42.6,33.8,40.7z"/>
<path class="st0" d="M41,14.2L14.2,40.9c-2,2-5.2,2-7.2,0l0,0c-2-2-2-5.2,0-7.2L33.8,7c2-2,5.2-2,7.2,0l0,0C43,9,43,12.2,41,14.2z"
	/>
<path class="st0" d="M41,13.9L14.2,40.7c-2,2-5.2,2-7.2,0l0,0c-2-2-2-5.2,0-7.2L33.8,6.7c2-2,5.2-2,7.2,0l0,0
	C43,8.7,43,11.9,41,13.9z"/>
</svg>
