<?xml version="1.0" encoding="utf-8"?>
<!-- Generator: Adobe Illustrator 24.0.3, SVG Export Plug-In . SVG Version: 6.00 Build 0)  -->
<svg version="1.1" id="Calque_1" xmlns="http://www.w3.org/2000/svg" xmlns:xlink="http://www.w3.org/1999/xlink" x="0px" y="0px"
	 viewBox="0 0 160 201" style="enable-background:new 0 0 160 201;" xml:space="preserve">
<style type="text/css">
	.st0{fill:#8A31FF;}
</style>
<g>
	<path class="st0" d="M159.09,13.16c-0.01-0.01-0.02-0.01-0.03-0.01L134.85,0.06c-0.49-0.26-1.09-0.27-1.58-0.01L78.76,28.48
		L26.66,0.27c-0.5-0.27-1.11-0.27-1.6,0L0.84,13.35c-0.01,0.01-0.02,0.01-0.03,0.02c-0.5,0.27-0.8,0.76-0.8,1.3V154.4
		c0,0.53,0.3,1.03,0.79,1.29l78.34,43c0.25,0.14,0.53,0.21,0.81,0.21c0.3,0,0.6-0.08,0.87-0.24l78.34-47.14
		c0.46-0.28,0.74-0.75,0.74-1.26V14.46C159.9,13.92,159.59,13.42,159.09,13.16z M25.85,3.3l52.09,28.21
		c0.49,0.26,1.09,0.27,1.58,0.01l54.51-28.44l21.06,11.38l-75.4,40.9L4.81,14.67L25.85,3.3z M79.91,195.64l-76.7-42.1V17.27
		l75.67,41.12c0.25,0.14,0.53,0.2,0.8,0.2c0.28,0,0.55-0.07,0.8-0.2l76.2-41.33v132.38L79.91,195.64z"/>
	<path class="st0" d="M134.47,137.07l-0.01-71.85c0-0.52-0.29-1-0.75-1.27c-0.47-0.27-1.06-0.3-1.55-0.07l-24.91,11.41L79.71,87.9
		L52.7,74.71c0,0,0,0,0,0L27.78,62.56c-0.5-0.24-1.09-0.22-1.57,0.05c-0.48,0.27-0.77,0.76-0.77,1.28l0,73.4
		c0,0.03,0,0.06,0.01,0.09c0,0.03,0,0.07,0.01,0.1c0,0.03,0.01,0.06,0.02,0.09c0.01,0.03,0.01,0.07,0.02,0.1
		c0.01,0.03,0.02,0.06,0.03,0.09c0.01,0.03,0.02,0.06,0.03,0.1c0.01,0.03,0.03,0.06,0.05,0.09c0.02,0.03,0.03,0.06,0.05,0.09
		c0.02,0.03,0.04,0.06,0.06,0.09c0.02,0.02,0.03,0.05,0.05,0.07c0.02,0.03,0.05,0.06,0.08,0.08c0.02,0.02,0.04,0.04,0.06,0.06
		c0.03,0.03,0.06,0.05,0.09,0.08c0.02,0.02,0.04,0.04,0.07,0.05c0.03,0.02,0.06,0.04,0.1,0.06c0.03,0.02,0.05,0.03,0.08,0.05l0.01,0
		l0,0l0,0l52.64,28.97c0.25,0.14,0.53,0.21,0.81,0.21c0.28,0,0.56-0.07,0.81-0.21l53.17-29.17c0,0,0,0,0,0s0,0,0,0l0,0
		c0.02-0.01,0.04-0.03,0.06-0.04c0.04-0.02,0.08-0.05,0.11-0.07c0.03-0.02,0.05-0.04,0.07-0.06c0.03-0.02,0.06-0.04,0.08-0.07
		c0.03-0.03,0.05-0.06,0.08-0.08c0.02-0.02,0.04-0.04,0.06-0.06c0.03-0.03,0.05-0.06,0.07-0.1c0.01-0.02,0.03-0.04,0.04-0.06
		c0.02-0.03,0.04-0.07,0.06-0.11c0.01-0.02,0.03-0.04,0.04-0.07c0.01-0.03,0.03-0.07,0.04-0.11c0.01-0.03,0.02-0.05,0.03-0.08
		c0.01-0.03,0.01-0.07,0.02-0.1c0.01-0.03,0.01-0.06,0.02-0.09c0-0.03,0-0.07,0.01-0.1C134.46,137.15,134.47,137.11,134.47,137.07
		L134.47,137.07L134.47,137.07L134.47,137.07z M131.26,134.5l-21.71-11.62V77.57l21.7-9.94L131.26,134.5z M80.4,90.93l25.95-11.89
		v43.87l-26.65,15.28l-26.14-15.07v-44.6l25.39,12.39C79.4,91.13,79.94,91.14,80.4,90.93z M50.35,76.95v46.13l-5.47,2.93
		l-16.24,8.69l0-68.34L50.35,76.95z M79.69,164.52l-49.45-27.21l20.9-11.19l0.78-0.42l26.93,15.53c0.26,0.15,0.55,0.22,0.84,0.22
		c0.29,0,0.58-0.07,0.84-0.22l27.45-15.74l8.52,4.56l13.17,7.04L79.69,164.52z"/>
</g>
</svg>
